<?xml version="1.0" standalone="no"?>
<!DOCTYPE svg PUBLIC "-//W3C//DTD SVG 20010904//EN"
 "http://www.w3.org/TR/2001/REC-SVG-20010904/DTD/svg10.dtd">
<svg version="1.0" xmlns="http://www.w3.org/2000/svg"
 width="597.000000pt" height="597.000000pt" viewBox="0 0 597.000000 597.000000"
 preserveAspectRatio="xMidYMid meet">
<metadata>
Created by potrace 1.11, written by Peter Selinger 2001-2013
</metadata>
<g transform="translate(0.000000,597.000000) scale(0.100000,-0.100000)"
fill="#000000" stroke="none">
<path d="M2740 5963 c-142 -16 -282 -38 -380 -59 -867 -191 -1600 -766 -2005
-1574 -148 -295 -256 -644 -290 -945 -3 -27 -10 -84 -15 -125 -13 -119 -5
-549 13 -670 56 -371 143 -652 293 -952 149 -300 317 -532 564 -779 471 -473
1068 -763 1735 -843 117 -14 563 -15 660 -2 36 5 117 18 200 32 119 20 320 75
466 128 550 199 1043 575 1391 1061 247 345 423 752 502 1163 47 242 55 347
51 632 -4 257 -4 261 -36 460 -132 808 -613 1547 -1304 2002 -343 227 -749
384 -1141 443 -60 9 -122 18 -139 21 -38 7 -518 13 -565 7z"/>
</g>
</svg>
